<svg xmlns="http://www.w3.org/2000/svg" xmlns:xlink="http://www.w3.org/1999/xlink" width="4269" zoomAndPan="magnify" viewBox="0 0 3201.75 1799.999925" height="2400" preserveAspectRatio="xMidYMid meet" version="1.0"><defs><g/><clipPath id="2ef12eb6d2"><path d="M 126.136719 502 L 921 502 L 921 1230 L 126.136719 1230 Z M 126.136719 502 " clip-rule="nonzero"/></clipPath><clipPath id="e4091a5c63"><path d="M 171 685 L 966.335938 685 L 966.335938 1413 L 171 1413 Z M 171 685 " clip-rule="nonzero"/></clipPath><clipPath id="0528b91b84"><rect x="0" width="2067" y="0" height="762"/></clipPath><clipPath id="fc7001d031"><rect x="0" width="2123" y="0" height="665"/></clipPath></defs><g clip-path="url(#2ef12eb6d2)"><path stroke-linecap="round" transform="matrix(5.715623, 0, 0, 5.719034, -139.635472, 271.322458)" fill="none" stroke-linejoin="round" d="M 57.99871 155.999385 L 57.99871 98.999486 C 57.99871 70.002293 76.00104 52.001139 104.99982 52.001139 L 174.000666 52.001139 " stroke="#ffffff" stroke-width="23" stroke-opacity="1" stroke-miterlimit="4"/></g><g clip-path="url(#e4091a5c63)"><path stroke-linecap="round" transform="matrix(5.715623, 0, 0, 5.719034, -139.635472, 271.322458)" fill="none" stroke-linejoin="round" d="M 182.000258 83.998865 L 182.000258 140.998764 C 182.000258 170.000738 163.997928 188.001892 134.998464 188.001892 L 65.997619 188.001892 " stroke="#ffffff" stroke-width="23" stroke-opacity="1" stroke-miterlimit="4"/></g><g transform="matrix(1, 0, 0, 1, 1053, 307)"><g clip-path="url(#0528b91b84)"><g fill="#ffffff" fill-opacity="1"><g transform="translate(6.907617, 507.809561)"><g><path d="M 83.0625 -248.359375 L 46.328125 -284.671875 L 83.0625 -321.828125 L 119.796875 -284.671875 Z M 168.203125 -248.359375 L 131.484375 -284.671875 L 168.203125 -321.828125 L 204.9375 -284.671875 Z M 0 0 L 0 -36.734375 C 0 -61.222656 4.453125 -83.550781 13.359375 -103.71875 C 22.265625 -123.894531 34.644531 -141.21875 50.5 -155.6875 C 66.363281 -170.164062 84.800781 -181.300781 105.8125 -189.09375 C 126.820312 -196.882812 149.566406 -200.78125 174.046875 -200.78125 L 210.78125 -200.78125 L 210.78125 -36.734375 L 240 -36.734375 L 240 0 L 174.046875 0 L 174.046875 -164.046875 C 148.734375 -163.765625 125.640625 -158.265625 104.765625 -147.546875 C 83.898438 -136.835938 67.34375 -122.019531 55.09375 -103.09375 C 42.851562 -84.175781 36.734375 -62.054688 36.734375 -36.734375 L 36.734375 0 Z M 0 0 "/></g></g></g><g fill="#ffffff" fill-opacity="1"><g transform="translate(261.930215, 507.809561)"><g><path d="M -7.9375 0 C -14.050781 0 -19.125 -1.738281 -23.15625 -5.21875 C -27.195312 -8.695312 -29.21875 -13.078125 -29.21875 -18.359375 C -29.21875 -23.648438 -27.195312 -28.035156 -23.15625 -31.515625 C -19.125 -34.992188 -14.050781 -36.734375 -7.9375 -36.734375 L 113.953125 -36.734375 C 88.628906 -52.867188 70.050781 -72.972656 58.21875 -97.046875 C 46.394531 -121.117188 40.484375 -145.535156 40.484375 -170.296875 L 40.484375 -207.03125 L 303.453125 -207.03125 L 303.453125 -170.296875 C 303.453125 -145.535156 297.46875 -121.117188 285.5 -97.046875 C 273.53125 -72.972656 255.023438 -52.867188 229.984375 -36.734375 L 336 -36.734375 L 336 0 Z M 172.390625 -36.734375 C 182.398438 -39.796875 192.898438 -45.082031 203.890625 -52.59375 C 214.890625 -60.101562 225.117188 -69.632812 234.578125 -81.1875 C 244.035156 -92.738281 251.753906 -106.023438 257.734375 -121.046875 C 263.722656 -136.078125 266.859375 -152.492188 267.140625 -170.296875 L 77.640625 -170.296875 C 77.910156 -152.492188 81.109375 -136.078125 87.234375 -121.046875 C 93.359375 -106.023438 101.21875 -92.738281 110.8125 -81.1875 C 120.414062 -69.632812 130.644531 -60.101562 141.5 -52.59375 C 152.351562 -45.082031 162.648438 -39.796875 172.390625 -36.734375 Z M 172.390625 -36.734375 "/></g></g></g><g fill="#ffffff" fill-opacity="1"><g transform="translate(597.925625, 507.809561)"><g><path d="M -7.9375 0 C -14.050781 0 -19.125 -1.738281 -23.15625 -5.21875 C -27.195312 -8.695312 -29.21875 -13.078125 -29.21875 -18.359375 C -29.21875 -23.929688 -27.195312 -28.382812 -23.15625 -31.71875 C -19.125 -35.0625 -14.050781 -36.734375 -7.9375 -36.734375 L 30.890625 -36.734375 C 56.484375 -36.734375 78.1875 -42.296875 96 -53.421875 C 113.8125 -64.554688 127.722656 -80.140625 137.734375 -100.171875 C 147.753906 -120.210938 153.738281 -143.585938 155.6875 -170.296875 L 193.671875 -170.296875 C 195.335938 -143.585938 200.132812 -120.210938 208.0625 -100.171875 C 216 -80.140625 228.035156 -64.554688 244.171875 -53.421875 C 260.316406 -42.296875 281.050781 -36.734375 306.375 -36.734375 L 309.703125 -36.734375 L 309.703125 0 L 299.6875 0 C 266.300781 0 239.519531 -8.347656 219.34375 -25.046875 C 199.164062 -41.742188 184.347656 -64.144531 174.890625 -92.25 C 162.921875 -64.144531 145.390625 -41.742188 122.296875 -25.046875 C 99.203125 -8.347656 70.957031 0 37.5625 0 Z M 85.984375 132.3125 L 50.09375 96.421875 L 85.984375 60.53125 L 121.875 96.421875 Z M 85.984375 132.3125 "/></g></g></g><g fill="#ffffff" fill-opacity="1"><g transform="translate(907.62569, 507.809561)"><g><path d="M -7.9375 0 C -14.050781 0 -19.125 -1.738281 -23.15625 -5.21875 C -27.195312 -8.695312 -29.21875 -13.078125 -29.21875 -18.359375 C -29.21875 -23.648438 -27.195312 -28.035156 -23.15625 -31.515625 C -19.125 -34.992188 -14.050781 -36.734375 -7.9375 -36.734375 L 50.09375 -36.734375 L 50.09375 0 Z M -7.9375 0 "/></g></g></g><g fill="#ffffff" fill-opacity="1"><g transform="translate(957.712007, 507.809561)"><g><path d="M -7.9375 0 C -14.050781 0 -19.125 -1.738281 -23.15625 -5.21875 C -27.195312 -8.695312 -29.21875 -13.078125 -29.21875 -18.359375 C -29.21875 -23.648438 -27.195312 -28.035156 -23.15625 -31.515625 C -19.125 -34.992188 -14.050781 -36.734375 -7.9375 -36.734375 L 50.09375 -36.734375 L 50.09375 0 Z M -7.9375 0 "/></g></g></g><g fill="#ffffff" fill-opacity="1"><g transform="translate(1007.798324, 507.809561)"><g><path d="M -7.9375 0 C -14.050781 0 -19.125 -1.738281 -23.15625 -5.21875 C -27.195312 -8.695312 -29.21875 -13.078125 -29.21875 -18.359375 C -29.21875 -23.648438 -27.195312 -28.035156 -23.15625 -31.515625 C -19.125 -34.992188 -14.050781 -36.734375 -7.9375 -36.734375 L 50.09375 -36.734375 L 50.09375 0 Z M -7.9375 0 "/></g></g></g><g fill="#ffffff" fill-opacity="1"><g transform="translate(1057.884642, 507.809561)"><g><path d="M -7.9375 0 C -14.050781 0 -19.125 -1.738281 -23.15625 -5.21875 C -27.195312 -8.695312 -29.21875 -13.078125 -29.21875 -18.359375 C -29.21875 -23.648438 -27.195312 -28.035156 -23.15625 -31.515625 C -19.125 -34.992188 -14.050781 -36.734375 -7.9375 -36.734375 L 50.09375 -36.734375 L 50.09375 0 Z M -7.9375 0 "/></g></g></g><g fill="#ffffff" fill-opacity="1"><g transform="translate(1107.970959, 507.809561)"><g><path d="M -7.9375 0 C -14.050781 0 -19.125 -1.738281 -23.15625 -5.21875 C -27.195312 -8.695312 -29.21875 -13.078125 -29.21875 -18.359375 C -29.21875 -23.648438 -27.195312 -28.035156 -23.15625 -31.515625 C -19.125 -34.992188 -14.050781 -36.734375 -7.9375 -36.734375 L 50.09375 -36.734375 L 50.09375 0 Z M -7.9375 0 "/></g></g></g><g fill="#ffffff" fill-opacity="1"><g transform="translate(1158.057276, 507.809561)"><g><path d="M -7.9375 0 C -14.050781 0 -19.125 -1.738281 -23.15625 -5.21875 C -27.195312 -8.695312 -29.21875 -13.078125 -29.21875 -18.359375 C -29.21875 -23.648438 -27.195312 -28.035156 -23.15625 -31.515625 C -19.125 -34.992188 -14.050781 -36.734375 -7.9375 -36.734375 L 50.09375 -36.734375 L 50.09375 0 Z M -7.9375 0 "/></g></g></g><g fill="#ffffff" fill-opacity="1"><g transform="translate(1208.143593, 507.809561)"><g><path d="M -7.9375 0 C -14.050781 0 -19.125 -1.738281 -23.15625 -5.21875 C -27.195312 -8.695312 -29.21875 -13.078125 -29.21875 -18.359375 C -29.21875 -23.648438 -27.195312 -28.035156 -23.15625 -31.515625 C -19.125 -34.992188 -14.050781 -36.734375 -7.9375 -36.734375 L 50.09375 -36.734375 L 50.09375 0 Z M -7.9375 0 "/></g></g></g><g fill="#ffffff" fill-opacity="1"><g transform="translate(1258.22991, 507.809561)"><g><path d="M -7.9375 0 C -14.050781 0 -19.125 -1.738281 -23.15625 -5.21875 C -27.195312 -8.695312 -29.21875 -13.078125 -29.21875 -18.359375 C -29.21875 -23.648438 -27.195312 -28.035156 -23.15625 -31.515625 C -19.125 -34.992188 -14.050781 -36.734375 -7.9375 -36.734375 L 50.09375 -36.734375 L 50.09375 0 Z M -7.9375 0 "/></g></g></g><g fill="#ffffff" fill-opacity="1"><g transform="translate(1308.316228, 507.809561)"><g><path d="M -7.9375 0 C -14.050781 0 -19.125 -1.738281 -23.15625 -5.21875 C -27.195312 -8.695312 -29.21875 -13.078125 -29.21875 -18.359375 C -29.21875 -23.648438 -27.195312 -28.035156 -23.15625 -31.515625 C -19.125 -34.992188 -14.050781 -36.734375 -7.9375 -36.734375 L 50.09375 -36.734375 L 50.09375 0 Z M -7.9375 0 "/></g></g></g><g fill="#ffffff" fill-opacity="1"><g transform="translate(1358.402545, 507.809561)"><g><path d="M -7.9375 0 C -14.050781 0 -19.125 -1.738281 -23.15625 -5.21875 C -27.195312 -8.695312 -29.21875 -13.078125 -29.21875 -18.359375 C -29.21875 -23.648438 -27.195312 -28.035156 -23.15625 -31.515625 C -19.125 -34.992188 -14.050781 -36.734375 -7.9375 -36.734375 L 50.09375 -36.734375 L 50.09375 0 Z M -7.9375 0 "/></g></g></g><g fill="#ffffff" fill-opacity="1"><g transform="translate(1408.488862, 507.809561)"><g><path d="M -7.9375 0 C -14.050781 0 -19.125 -1.738281 -23.15625 -5.21875 C -27.195312 -8.695312 -29.21875 -13.078125 -29.21875 -18.359375 C -29.21875 -23.648438 -27.195312 -28.035156 -23.15625 -31.515625 C -19.125 -34.992188 -14.050781 -36.734375 -7.9375 -36.734375 L 50.09375 -36.734375 L 50.09375 0 Z M -7.9375 0 "/></g></g></g><g fill="#ffffff" fill-opacity="1"><g transform="translate(1458.575179, 507.809561)"><g><path d="M -7.9375 0 C -14.050781 0 -19.125 -1.738281 -23.15625 -5.21875 C -27.195312 -8.695312 -29.21875 -13.078125 -29.21875 -18.359375 C -29.21875 -23.648438 -27.195312 -28.035156 -23.15625 -31.515625 C -19.125 -34.992188 -14.050781 -36.734375 -7.9375 -36.734375 L 50.09375 -36.734375 L 50.09375 0 Z M -7.9375 0 "/></g></g></g><g fill="#ffffff" fill-opacity="1"><g transform="translate(1508.661496, 507.809561)"><g><path d="M -7.9375 0 C -14.050781 0 -19.125 -1.738281 -23.15625 -5.21875 C -27.195312 -8.695312 -29.21875 -13.078125 -29.21875 -18.359375 C -29.21875 -23.648438 -27.195312 -28.035156 -23.15625 -31.515625 C -19.125 -34.992188 -14.050781 -36.734375 -7.9375 -36.734375 L 50.09375 -36.734375 L 50.09375 0 Z M -7.9375 0 "/></g></g></g><g fill="#ffffff" fill-opacity="1"><g transform="translate(1558.747814, 507.809561)"><g><path d="M -7.9375 0 C -14.050781 0 -19.125 -1.738281 -23.15625 -5.21875 C -27.195312 -8.695312 -29.21875 -13.078125 -29.21875 -18.359375 C -29.21875 -23.648438 -27.195312 -28.035156 -23.15625 -31.515625 C -19.125 -34.992188 -14.050781 -36.734375 -7.9375 -36.734375 L 50.09375 -36.734375 L 50.09375 0 Z M -7.9375 0 "/></g></g></g><g fill="#ffffff" fill-opacity="1"><g transform="translate(1608.834131, 507.809561)"><g><path d="M -7.9375 0 C -14.050781 0 -19.125 -1.738281 -23.15625 -5.21875 C -27.195312 -8.695312 -29.21875 -13.078125 -29.21875 -18.359375 C -29.21875 -23.648438 -27.195312 -28.035156 -23.15625 -31.515625 C -19.125 -34.992188 -14.050781 -36.734375 -7.9375 -36.734375 L 50.09375 -36.734375 L 50.09375 0 Z M -7.9375 0 "/></g></g></g><g fill="#ffffff" fill-opacity="1"><g transform="translate(1658.920448, 507.809561)"><g><path d="M -7.9375 0 C -14.050781 0 -19.125 -1.738281 -23.15625 -5.21875 C -27.195312 -8.695312 -29.21875 -13.078125 -29.21875 -18.359375 C -29.21875 -23.648438 -27.195312 -28.035156 -23.15625 -31.515625 C -19.125 -34.992188 -14.050781 -36.734375 -7.9375 -36.734375 L 91 -36.734375 C 89.050781 -48.703125 85.988281 -60.804688 81.8125 -73.046875 C 77.632812 -85.285156 72.066406 -97.390625 65.109375 -109.359375 L 92.25 -136.90625 C 109.78125 -105.46875 120.910156 -72.078125 125.640625 -36.734375 L 212.03125 -36.734375 C 210.925781 -47.585938 208.5625 -58.300781 204.9375 -68.875 C 201.320312 -79.445312 196.867188 -89.601562 191.578125 -99.34375 L 221.21875 -123.96875 C 228.726562 -110.050781 234.640625 -95.785156 238.953125 -81.171875 C 243.265625 -66.566406 246.117188 -51.753906 247.515625 -36.734375 L 332.25 -36.734375 C 332.25 -48.421875 331.273438 -60.453125 329.328125 -72.828125 C 327.378906 -85.210938 323.066406 -98.222656 316.390625 -111.859375 C 309.710938 -125.492188 299.132812 -139.828125 284.65625 -154.859375 L 312.625 -179.0625 C 328.769531 -162.644531 340.875 -146.085938 348.9375 -129.390625 C 357.007812 -112.703125 362.367188 -96.566406 365.015625 -80.984375 C 367.660156 -65.398438 368.984375 -50.925781 368.984375 -37.5625 L 368.984375 0 Z M -7.9375 0 "/></g></g></g></g></g><g transform="matrix(1, 0, 0, 1, 1052, 869)"><g clip-path="url(#fc7001d031)"><g fill="#ffffff" fill-opacity="1"><g transform="translate(8.492866, 511.933891)"><g><path d="M 225.464844 -259.484375 L 225.464844 -340.734375 L 214.800781 -340.734375 L 214.800781 -301.632812 C 202.613281 -324.484375 178.746094 -337.6875 147.261719 -337.6875 C 94.453125 -337.6875 50.78125 -293.507812 50.78125 -238.667969 C 50.78125 -116.285156 228.511719 -160.972656 228.511719 -73.632812 C 228.511719 -35.039062 194.488281 -5.585938 147.769531 -5.585938 C 95.46875 -5.585938 54.84375 -43.671875 50.78125 -96.988281 L 40.117188 -96.988281 L 40.117188 5.078125 L 50.78125 5.078125 L 50.78125 -50.78125 C 70.078125 -15.234375 105.625 5.078125 147.261719 5.078125 C 209.722656 5.078125 258.980469 -42.65625 258.980469 -102.066406 C 258.980469 -226.480469 85.3125 -179.253906 85.3125 -266.59375 C 85.3125 -300.109375 112.734375 -326.515625 149.292969 -326.515625 C 186.871094 -326.515625 212.261719 -301.125 215.308594 -259.484375 Z M 225.464844 -259.484375 "/></g></g></g><g fill="#ffffff" fill-opacity="1"><g transform="translate(351.754491, 511.933891)"><g><path d="M 276.753906 -127.457031 C 276.753906 -79.726562 271.675781 -56.875 255.933594 -35.546875 C 242.730469 -17.265625 221.402344 -5.585938 195.503906 -5.585938 C 171.636719 -5.585938 152.847656 -15.234375 138.125 -31.992188 C 122.382812 -49.765625 114.257812 -74.648438 114.257812 -123.394531 L 114.257812 -267.609375 C 129.492188 -305.1875 163.003906 -327.023438 196.011719 -327.023438 C 224.957031 -327.023438 245.269531 -311.28125 255.933594 -297.0625 C 276.246094 -269.640625 276.753906 -240.191406 276.753906 -202.105469 Z M 53.828125 -147.769531 C 53.828125 -125.933594 55.351562 -110.191406 61.445312 -90.894531 C 78.710938 -34.023438 134.0625 5.078125 195.503906 5.078125 C 233.082031 5.078125 272.691406 -10.664062 298.589844 -38.59375 C 326.519531 -69.0625 337.183594 -100.542969 337.183594 -149.292969 L 337.183594 -184.839844 C 337.183594 -229.019531 324.996094 -264.054688 300.621094 -291.476562 C 276.246094 -318.898438 238.160156 -337.6875 198.550781 -337.6875 C 162.496094 -337.6875 130 -317.375 114.257812 -290.460938 L 114.257812 -467.175781 L 18.789062 -467.175781 L 18.789062 -456.511719 L 53.828125 -456.511719 Z M 53.828125 -147.769531 "/></g></g></g><g fill="#ffffff" fill-opacity="1"><g transform="translate(783.366929, 511.933891)"><g><path d="M 258.472656 -65 C 243.238281 -27.421875 209.722656 -5.585938 176.714844 -5.585938 C 147.769531 -5.585938 127.460938 -21.328125 116.796875 -35.546875 C 96.484375 -62.96875 95.976562 -92.417969 95.976562 -130.503906 L 95.976562 -209.214844 C 95.976562 -257.960938 104.101562 -282.84375 119.84375 -300.617188 C 134.570312 -317.375 153.355469 -327.023438 177.222656 -327.023438 C 203.121094 -327.023438 224.449219 -315.34375 237.652344 -297.0625 C 253.394531 -275.734375 258.472656 -252.882812 258.472656 -205.152344 Z M 318.902344 -183.316406 C 318.902344 -232.066406 308.238281 -263.546875 280.308594 -294.015625 C 254.410156 -321.945312 214.800781 -337.6875 177.222656 -337.6875 C 115.78125 -337.6875 60.429688 -298.585938 43.164062 -241.714844 C 37.070312 -222.417969 35.546875 -206.675781 35.546875 -184.839844 L 35.546875 -147.769531 C 35.546875 -103.589844 47.734375 -68.554688 72.109375 -41.132812 C 96.484375 -13.710938 134.570312 5.078125 174.175781 5.078125 C 210.230469 5.078125 243.238281 -15.234375 258.980469 -42.148438 L 258.980469 0 L 353.941406 0 L 353.941406 -10.664062 L 318.902344 -10.664062 Z M 318.902344 -183.316406 "/></g></g></g><g fill="#ffffff" fill-opacity="1"><g transform="translate(1214.979367, 511.933891)"><g><path d="M 258.472656 -65 C 243.238281 -27.421875 209.722656 -5.585938 176.714844 -5.585938 C 147.769531 -5.585938 127.460938 -21.328125 116.796875 -35.546875 C 96.484375 -62.96875 95.976562 -92.417969 95.976562 -130.503906 L 95.976562 -209.214844 C 95.976562 -257.960938 104.101562 -282.84375 119.84375 -300.617188 C 134.570312 -317.375 153.355469 -327.023438 177.222656 -327.023438 C 203.121094 -327.023438 224.449219 -315.34375 237.652344 -297.0625 C 253.394531 -275.734375 258.472656 -252.882812 258.472656 -205.152344 Z M 318.902344 -183.316406 C 318.902344 -232.066406 308.238281 -263.546875 280.308594 -294.015625 C 254.410156 -321.945312 214.800781 -337.6875 177.222656 -337.6875 C 115.78125 -337.6875 60.429688 -298.585938 43.164062 -241.714844 C 37.070312 -222.417969 35.546875 -206.675781 35.546875 -184.839844 L 35.546875 -147.769531 C 35.546875 -103.589844 47.734375 -68.554688 72.109375 -41.132812 C 96.484375 -13.710938 134.570312 5.078125 174.175781 5.078125 C 210.230469 5.078125 243.238281 -15.234375 258.980469 -42.148438 L 258.980469 0 L 353.941406 0 L 353.941406 -10.664062 L 318.902344 -10.664062 Z M 318.902344 -183.316406 "/></g></g></g><g fill="#ffffff" fill-opacity="1"><g transform="translate(1646.591804, 511.933891)"><g><path d="M 385.425781 0 L 385.425781 -10.664062 L 351.402344 -10.664062 L 351.402344 -184.839844 C 351.402344 -229.019531 339.214844 -264.054688 314.839844 -291.476562 C 290.464844 -318.898438 252.378906 -337.6875 212.769531 -337.6875 C 176.714844 -337.6875 144.214844 -317.375 128.476562 -290.460938 L 128.476562 -467.175781 L 33.007812 -467.175781 L 33.007812 -456.511719 L 68.046875 -456.511719 L 68.046875 -10.664062 L 33.007812 -10.664062 L 33.007812 0 L 162.496094 0 L 162.496094 -10.664062 L 128.476562 -10.664062 L 128.476562 -267.609375 C 143.710938 -305.1875 177.222656 -327.023438 210.230469 -327.023438 C 239.175781 -327.023438 259.488281 -311.28125 270.152344 -297.0625 C 290.464844 -269.640625 290.972656 -240.191406 290.972656 -202.105469 L 290.972656 0 Z M 385.425781 0 "/></g></g></g></g></g></svg>